Coordinates
version=1
nRows=12
nColumns=24
inDegrees=yes

Units are S.I. units (second, meters, Newtons, ...)
Angles are in degrees.

endheader
time	pelvis_tilt	pelvis_list	pelvis_rotation	pelvis_tx	pelvis_ty	pelvis_tz	hip_flexion_r	hip_adduction_r	hip_rotation_r	knee_angle_r	ankle_angle_r	subtalar_angle_r	mtp_angle_r	hip_flexion_l	hip_adduction_l	hip_rotation_l	knee_angle_l	ankle_angle_l	subtalar_angle_l	mtp_angle_l	lumbar_extension	lumbar_bending	lumbar_rotation
      0.56700000	     -0.44463618	      2.11586853	      6.70656090	     -0.76430311	      0.96316993	      0.31405249	     28.83509562	     -2.19126956	     -4.02735238	     -4.28652915	      6.12932883	    -12.45914890	     -0.05295085	    -20.71124216	      3.58814022	      7.47248180	     -2.18913752	     13.18327864	     -7.45349077	      0.40836357	      0.88800015	     -0.23530147	     -2.88309517
      0.57116667	     -0.48678307	      1.98669829	      6.77239170	     -0.75804289	      0.96202774	      0.31420453	     29.06803585	     -2.06820625	     -4.13574254	     -4.84766925	      6.02918348	    -12.72720832	     -0.06791012	    -20.98155624	      3.38682567	      7.35322084	     -2.30622659	     13.18420931	     -7.36524508	      0.42357928	      0.99306087	     -0.08183832	     -2.88514539
      0.57533333	     -0.59200387	      1.84823519	      6.84062417	     -0.75177310	      0.96083059	      0.31441386	     29.34309298	     -1.92435193	     -4.04203283	     -5.42205996	      5.92451521	    -13.36218401	     -0.11074083	    -21.08934414	      3.17811581	      7.03728332	     -2.61520804	     13.39136209	     -6.79474720	      0.51579491	      1.16904839	      0.09179422	     -2.99443807
      0.57950000	     -0.64388383	      1.69672328	      6.89282774	     -0.74543148	      0.95973069	      0.31461665	     29.57614438	     -1.76464857	     -4.04526087	     -6.06735566	      5.70222477	    -13.84495167	     -0.15117921	    -21.29389140	      2.95636359	      6.80907059	     -2.84578471	     13.44459489	     -6.48905158	      0.61300645	      1.29331718	      0.28839153	     -3.05647140
      0.58366667	     -0.66099741	      1.55691413	      6.91761415	     -0.73904663	      0.95868241	      0.31482649	     29.80919352	     -1.61328794	     -4.12211972	     -6.82921669	      5.46991532	    -14.07473919	     -0.16258017	    -21.56711770	      2.75729068	      6.67324263	     -3.01658957	     13.38950834	     -6.45923632	      0.62936599	      1.36285186	      0.45933865	     -3.08895851
      0.58783333	     -0.76694278	      1.38539988	      6.95509386	     -0.73262544	      0.95757785	      0.31510005	     30.08893187	     -1.41739908	     -4.00263665	     -7.54155906	      5.14804251	    -14.84745208	     -0.20182861	    -21.63445836	      2.52271957	      6.29228258	     -3.40237885	     13.50906813	     -5.86785776	      0.82632366	      1.55392369	      0.67384767	     -3.17990545
      0.59200000	     -0.87197077	      1.23057940	      6.98058672	     -0.72615535	      0.95649047	      0.31534316	     30.40920406	     -1.25054299	     -4.00746860	     -8.37393070	      4.82229925	    -15.29231991	     -0.22255838	    -21.74924155	      2.31807583	      6.11267028	     -3.70242347	     13.50896439	     -5.67324113	      0.94211778	      1.75674795	      0.86542884	     -3.22364000
      0.59616667	     -0.96567537	      1.05452616	      6.99247045	     -0.71962715	      0.95545799	      0.31562952	     30.70391722	     -1.04855627	     -3.98208459	     -9.20880492	      4.42143454	    -15.82952397	     -0.24033454	    -21.85549642	      2.09113421	      5.85900469	     -4.04182838	     13.49574451	     -5.37770523	      1.08054705	      1.93954730	      1.07773127	     -3.26690327
      0.60033333	     -1.01472305	      0.88161930	      6.97769702	     -0.71307467	      0.95452493	      0.31596246	     30.94111593	     -0.82478316	     -3.89549163	    -10.05013152	      3.99847490	    -16.47022462	     -0.25884665	    -21.97942663	      1.87187456	      5.53654486	     -4.43840825	     13.46218095	     -5.07293278	      1.33757132	      2.06801068	      1.30418910	     -3.29447032
      0.60450000	     -1.04341917	      0.70988315	      6.95575242	     -0.70643948	      0.95364441	      0.31624297	     31.19463903	     -0.62323694	     -3.98374227	    -10.99759295	      3.60054768	    -16.68552278	     -0.26852846	    -22.18704209	      1.66275646	      5.39267999	     -4.71833283	     13.30394998	     -5.07348855	      1.36547325	      2.19088952	      1.52870770	     -3.31579735
      0.60866667	     -1.24090410	      0.53335987	      6.94514044	     -0.69982665	      0.95261880	      0.31661438	     31.58036395	     -0.40259454	     -3.84568070	    -11.85824296	      3.00467155	    -17.40843321	     -0.28170727	    -22.08952172	      1.45615046	      5.09756002	     -5.23893741	     13.28650962	     -4.69587983	      1.57645221	      2.51235313	      1.73645188	     -3.33481832
      0.61283333	     -1.28755047	      0.32722279	      6.91206685	     -0.69313977	      0.95183997	      0.31700226	     31.79854590	     -0.13050311	     -3.76922336	    -12.73100302	      2.50820258	    -18.07630182	     -0.29755740	    -22.16982190	      1.20710872	      4.75873607	     -5.71897088	     13.14028991	     -4.39165244	      1.93776632	      2.65331940	      2.00197469	     -3.33571733
